<svg xmlns="http://www.w3.org/2000/svg" width="19.37" height="28.536" viewBox="0 0 19.37 28.536"><path d="M12.5,10.988c9.591,0,9.685-3.421,9.685-3.944a2.3,2.3,0,0,0-.809-1.68c-.768-.816-3.622-2.193-8.714-2.193a21.323,21.323,0,0,0-5.316.672L6.917,1.106H18.7L18.932,0H5.589l.756,4.979a18.951,18.951,0,0,1,6.32-.909c3.989,0,8.252.972,8.252,2.954S17.495,10,12.521,10,3.306,8.885,4.071,6.528l-.945-.511a3.178,3.178,0,0,0-.307,1.045c0,.566.093,3.926,9.685,3.926" transform="translate(-2.818)"/><path d="M12.5,156.241c9.591,0,9.647-3.421,9.647-3.945a2.173,2.173,0,0,0-.966-1.749l-.89.521a1.607,1.607,0,0,1,.622,1.209c0,1.982-3.421,2.973-8.395,2.973s-9.25-1.207-8.488-3.44a2.406,2.406,0,0,1,.684-.776l-.987-.486a2.488,2.488,0,0,0-.913,1.767c0,.411.093,3.926,9.685,3.926" transform="translate(-2.818 -140.254)"/><path d="M143.955,306.708h0Z" transform="translate(-134.271 -285.738)"/><path d="M4.791,223.961l-.921-.523a2.164,2.164,0,0,0-.961,1.749c0,.523.087,3.94,9.66,3.945s9.694-3.422,9.694-3.945a2.153,2.153,0,0,0-.954-1.749l-.968.521a1.673,1.673,0,0,1,.673,1.208c0,1.9-3.473,2.973-8.446,2.973S4,226.992,4.016,225.168a1.832,1.832,0,0,1,.775-1.207" transform="translate(-2.903 -208.161)"/><path d="M14.005,299.4a13.216,13.216,0,0,0,2.615,1.833.154.154,0,0,1,.083.136c.006.928.1,1.174.5,1.574.492.492,1.9.571,4.369.571s3.877-.08,4.369-.571c.4-.4.5-.647.5-1.574a.154.154,0,0,1,.083-.136,13.216,13.216,0,0,0,2.615-1.833,4.153,4.153,0,0,0,1.43-3.154V295.2a.043.043,0,0,0-.064-.037l-1.069.594a.043.043,0,0,0-.022.038c.007.862.333,2.194-3.06,4.244l0,0c-.549.293-1.1.422-1.1,1.594,0,.617.238.751-3.684.751s-3.684-.134-3.684-.751c0-1.172-.549-1.3-1.1-1.594l0,0c-3.393-2.05-3.066-3.382-3.06-4.244a.043.043,0,0,0-.022-.038l-1.069-.594a.043.043,0,0,0-.064.037v1.044a4.153,4.153,0,0,0,1.43,3.154" transform="translate(-11.908 -274.978)"/></svg>