<svg xmlns="http://www.w3.org/2000/svg" width="133.47" height="40" viewBox="0 0 133.47 40"><path d="M84.61,34.2a10.776,10.776,0,0,0-2.535-3.74,10.959,10.959,0,0,0-3.915-2.4,15.042,15.042,0,0,0-5.13-.83h-.05a15.071,15.071,0,0,0-5.135.83,11,11,0,0,0-3.915,2.4A10.833,10.833,0,0,0,61.4,34.2a12.446,12.446,0,0,0-.9,4.82v1.96a12.463,12.463,0,0,0,.9,4.82,10.831,10.831,0,0,0,2.53,3.745,11.064,11.064,0,0,0,3.915,2.39,14.951,14.951,0,0,0,5.135.83h.05a14.9,14.9,0,0,0,5.13-.83,10.732,10.732,0,0,0,6.45-6.135,12.557,12.557,0,0,0,.9-4.82v-1.96a12.557,12.557,0,0,0-.9-4.82M79.275,40.98a6.156,6.156,0,0,1-6.24,6.235h-.05a6.148,6.148,0,0,1-6.24-6.235V39.02a6.148,6.148,0,0,1,6.24-6.235h.05a6.156,6.156,0,0,1,6.24,6.235Z" transform="translate(-30.25 -13.62)" fill="#231815"/><path d="M11.56,14.475H8.735a.613.613,0,0,1-.695-.69V7.61a.617.617,0,0,1,.695-.7h11.89a.617.617,0,0,0,.695-.7V2.065a.615.615,0,0,0-.695-.695H2.495a.615.615,0,0,0-.695.695v16.84a.613.613,0,0,0,.695.695H11.56a6.074,6.074,0,0,1,4.405,1.8,5.977,5.977,0,0,1,1.84,4.435V28.05a5.977,5.977,0,0,1-1.84,4.435,6.055,6.055,0,0,1-4.405,1.8h-.05a5.592,5.592,0,0,1-2.015-.315A4.515,4.515,0,0,1,8.04,33.1a8.565,8.565,0,0,1-1.145-1.25c-.345-.46-.725-.97-1.14-1.525-.235-.32-.44-.485-.625-.485a1.349,1.349,0,0,0-.35.14L.415,32.2c-.275.14-.415.3-.415.48A4.189,4.189,0,0,0,.97,34.87a15.363,15.363,0,0,0,2.98,2.95,9.334,9.334,0,0,0,3.12,1.45,16.189,16.189,0,0,0,4.44.555h.05q5.828,0,9.155-3.33a12.182,12.182,0,0,0,3.33-9.015v-1.3a12.182,12.182,0,0,0-3.33-9.015c-2.22-2.22-5.27-2.7-9.155-2.7" transform="translate(0 -0.685)" fill="#231815"/><path d="M144.6,30.455a10.98,10.98,0,0,0-3.92-2.4,15.021,15.021,0,0,0-5.13-.83h-.05a15.071,15.071,0,0,0-5.135.83,11,11,0,0,0-3.915,2.4,10.833,10.833,0,0,0-2.53,3.74,12.438,12.438,0,0,0-.9,4.815v1.96a12.557,12.557,0,0,0,.9,4.82,10.784,10.784,0,0,0,2.53,3.745,11.063,11.063,0,0,0,3.915,2.39,14.95,14.95,0,0,0,5.135.83h.05a14.9,14.9,0,0,0,5.13-.83,11.041,11.041,0,0,0,3.92-2.39,10.9,10.9,0,0,0,2.53-3.745,12.557,12.557,0,0,0,.9-4.82V39.01a12.514,12.514,0,0,0-.9-4.815,10.765,10.765,0,0,0-2.53-3.74M141.8,40.975a6.156,6.156,0,0,1-6.24,6.235h-.05a6.148,6.148,0,0,1-6.24-6.235v-1.96a6.148,6.148,0,0,1,6.24-6.235h.05a6.156,6.156,0,0,1,6.24,6.235Z" transform="translate(-61.51 -13.615)" fill="#231815"/><path d="M226.515,34.535l-2.365.135a.557.557,0,0,0-.52.555v3.96a.649.649,0,0,1-.65.65h-3.395a.649.649,0,0,1-.65-.65v-3.34a.666.666,0,0,0-.72-.65c-4.865.425-8.245.81-11.985,1.125a.653.653,0,0,1-.7-.55l-.33-2.1a.651.651,0,0,0-.645-.55H199.7a.649.649,0,0,0-.65.65v5.58a.649.649,0,0,1-.65.65H195.21a.649.649,0,0,1-.65-.65V33.77a.649.649,0,0,0-.65-.65h-5.79a.649.649,0,0,1-.65-.65V29.33a.649.649,0,0,1,.65-.65h5.79a.649.649,0,0,0,.65-.65V26.855a.649.649,0,0,0-.65-.65h-3.93a.649.649,0,0,1-.65-.65V11.385a.649.649,0,0,1,.65-.65h4.22a.362.362,0,0,0,.36-.36V8.835a.366.366,0,0,0-.36-.365h-5.655a.649.649,0,0,1-.65-.65V4.765a.649.649,0,0,1,.65-.65h5.365a.649.649,0,0,0,.65-.65V.65a.649.649,0,0,1,.65-.65h3.23a.649.649,0,0,1,.65.65v2.8a.649.649,0,0,0,.65.65h5.195a.649.649,0,0,1,.65.65V7.8a.649.649,0,0,1-.65.65h-5.48a.367.367,0,0,0-.365.365v1.54a.363.363,0,0,0,.365.36h4.56a.649.649,0,0,1,.65.65V25.54a.649.649,0,0,1-.65.65H199.7a.649.649,0,0,0-.65.65v1.175a.649.649,0,0,0,.65.65h5.79a.649.649,0,0,1,.65.65V31.19a.612.612,0,0,0,.635.61l2.54-.075a.657.657,0,0,0,.63-.66V17.435a.649.649,0,0,0-.65-.65h-1.86a.649.649,0,0,1-.65-.65V13.42a.649.649,0,0,1,.65-.65h19.08a.649.649,0,0,1,.65.65v2.755a.61.61,0,0,1-.615.61h-2.355a.568.568,0,0,0-.565.565V29.835a.59.59,0,0,0,.625.59l2.17-.095a.742.742,0,0,1,.78.74v2.715a.742.742,0,0,1-.69.74M193.65,16.8h.77a.649.649,0,0,0,.65-.65v-1.22a.649.649,0,0,0-.65-.65h-.77a.649.649,0,0,0-.65.65v1.22a.649.649,0,0,0,.65.65m0,5.855h.77a.649.649,0,0,0,.65-.65V20.78a.649.649,0,0,0-.65-.65h-.77a.649.649,0,0,0-.65.65V22a.649.649,0,0,0,.65.65m6.515-8.375h-.98a.649.649,0,0,0-.65.65v1.22a.649.649,0,0,0,.65.65h.98a.649.649,0,0,0,.65-.65v-1.22a.649.649,0,0,0-.65-.65m0,5.855h-.98a.649.649,0,0,0-.65.65V22a.649.649,0,0,0,.65.65h.98a.649.649,0,0,0,.65-.65V20.78a.649.649,0,0,0-.65-.65M223.08,11.2H211.15a.649.649,0,0,1-.65-.65V1.935a.649.649,0,0,1,.65-.65h11.93a.649.649,0,0,1,.65.65v8.61a.649.649,0,0,1-.65.65m-4.4-6.325H215.51a.649.649,0,0,0-.65.65V6.955a.649.649,0,0,0,.65.65h3.175a.649.649,0,0,0,.65-.65V5.52a.649.649,0,0,0-.65-.65M215.015,16.8a.367.367,0,0,0-.365.365V18.7a.367.367,0,0,0,.365.365h3.56a.363.363,0,0,0,.36-.365V17.16a.366.366,0,0,0-.36-.365Zm-.365,7.8a.363.363,0,0,0,.365.36h3.56a.362.362,0,0,0,.36-.36V22.97a.366.366,0,0,0-.36-.365h-3.56a.367.367,0,0,0-.365.365Zm0,6.075a.646.646,0,0,0,.69.65,28.049,28.049,0,0,0,3.24-.39.464.464,0,0,0,.355-.435V28.87a.366.366,0,0,0-.36-.365h-3.27a.649.649,0,0,0-.65.65v1.51Z" transform="translate(-93.735)" fill="#231815"/><path d="M70.2,3.32H68.65l-.015.6a1.08,1.08,0,0,1,.35-.045,1.578,1.578,0,0,1,.545.09,1.206,1.206,0,0,1,.425.255,1.13,1.13,0,0,1,.28.41,1.424,1.424,0,0,1,.1.54,1.478,1.478,0,0,1-.11.59,1.274,1.274,0,0,1-.31.44,1.287,1.287,0,0,1-.47.27,1.748,1.748,0,0,1-.6.095,1.414,1.414,0,0,1-.85-.25,1.261,1.261,0,0,1-.47-.75l.865-.2a.548.548,0,0,0,.175.34.521.521,0,0,0,.36.13.573.573,0,0,0,.425-.165.582.582,0,0,0,.155-.42.546.546,0,0,0-.08-.315.669.669,0,0,0-.21-.2.768.768,0,0,0-.29-.1,1.733,1.733,0,0,0-.32-.03,2.323,2.323,0,0,0-.41.04,2.609,2.609,0,0,0-.4.1l.045-2.16H70.2v.73Z" transform="translate(-33.765 -1.295)" fill="#231815"/><path d="M74.7,4.485a3.812,3.812,0,0,1,.065-.7,2.22,2.22,0,0,1,.225-.65,1.308,1.308,0,0,1,.445-.475,1.474,1.474,0,0,1,1.43,0,1.349,1.349,0,0,1,.445.475,2,2,0,0,1,.225.65,4.172,4.172,0,0,1,0,1.41,2.22,2.22,0,0,1-.225.65,1.389,1.389,0,0,1-1.875.475,1.349,1.349,0,0,1-.445-.475,1.964,1.964,0,0,1-.225-.65,4.3,4.3,0,0,1-.065-.705m.825,0a3.4,3.4,0,0,0,.015.37,1.9,1.9,0,0,0,.075.415.869.869,0,0,0,.185.335.507.507,0,0,0,.7,0,.842.842,0,0,0,.185-.335,1.847,1.847,0,0,0,.075-.415c.01-.145.015-.265.015-.37a3.4,3.4,0,0,0-.015-.37,1.9,1.9,0,0,0-.075-.415.869.869,0,0,0-.185-.335.459.459,0,0,0-.35-.14.435.435,0,0,0-.35.14.907.907,0,0,0-.185.335,1.846,1.846,0,0,0-.075.415c-.01.145-.015.27-.015.37" transform="translate(-37.35 -1.235)" fill="#231815"/><path d="M82.03,4.485a3.814,3.814,0,0,1,.065-.7,1.964,1.964,0,0,1,.225-.65,1.308,1.308,0,0,1,.445-.475,1.474,1.474,0,0,1,1.43,0,1.349,1.349,0,0,1,.445.475,2,2,0,0,1,.225.65,4.3,4.3,0,0,1,.065.7,3.815,3.815,0,0,1-.065.705,2.22,2.22,0,0,1-.225.65,1.389,1.389,0,0,1-1.875.475,1.349,1.349,0,0,1-.445-.475,1.964,1.964,0,0,1-.225-.65,4.3,4.3,0,0,1-.065-.705m.83,0c0,.105.005.225.015.37a1.9,1.9,0,0,0,.075.415.869.869,0,0,0,.185.335.451.451,0,0,0,.35.14.431.431,0,0,0,.345-.14.785.785,0,0,0,.185-.335,1.847,1.847,0,0,0,.075-.415c.01-.145.015-.265.015-.37s0-.225-.015-.37a1.9,1.9,0,0,0-.075-.415.809.809,0,0,0-.185-.335.455.455,0,0,0-.345-.14.442.442,0,0,0-.35.14.907.907,0,0,0-.185.335,1.848,1.848,0,0,0-.075.415c-.01.145-.015.27-.015.37" transform="translate(-41.015 -1.235)" fill="#231815"/><path d="M91.135,4.9h-.73v.9a1.243,1.243,0,0,0,.01.2.435.435,0,0,0,.05.155.219.219,0,0,0,.12.1.512.512,0,0,0,.21.035,1.3,1.3,0,0,0,.175-.015.278.278,0,0,0,.16-.065V6.9a1.076,1.076,0,0,1-.285.065,2.914,2.914,0,0,1-.295.015,1.535,1.535,0,0,1-.385-.045.879.879,0,0,1-.31-.14.679.679,0,0,1-.21-.25.85.85,0,0,1-.075-.375V4.895h-.53v-.66h.53V3.44h.83v.795h.73v.66Z" transform="translate(-44.52 -1.72)" fill="#231815"/><path d="M94.77,2.88a.48.48,0,1,1,.82.34.48.48,0,0,1-.82-.34m.065.84h.83V6.4h-.83Z" transform="translate(-47.385 -1.2)" fill="#231815"/><path d="M98.495,4.97h.8v.365h.01a.593.593,0,0,1,.11-.155.94.94,0,0,1,.17-.14.929.929,0,0,1,.225-.1.961.961,0,0,1,.275-.04,1.084,1.084,0,0,1,.5.115.739.739,0,0,1,.33.365.869.869,0,0,1,.35-.37,1.027,1.027,0,0,1,.5-.11,1.04,1.04,0,0,1,.455.09.745.745,0,0,1,.29.25,1.073,1.073,0,0,1,.155.37,2.195,2.195,0,0,1,.045.455V7.65h-.825V6.09a.615.615,0,0,0-.08-.325.307.307,0,0,0-.285-.135.571.571,0,0,0-.24.045.394.394,0,0,0-.155.13.577.577,0,0,0-.085.2,1.157,1.157,0,0,0-.025.23V7.65h-.825V6.23c0-.05,0-.105-.005-.175a.548.548,0,0,0-.04-.2.424.424,0,0,0-.1-.16.321.321,0,0,0-.22-.065.513.513,0,0,0-.26.06.406.406,0,0,0-.15.155.711.711,0,0,0-.07.22,2.059,2.059,0,0,0-.015.255V7.655h-.83V4.975Z" transform="translate(-49.245 -2.45)" fill="#231815"/><path d="M111.22,7.19a1.283,1.283,0,0,1-.5.39,1.523,1.523,0,0,1-.63.14,1.641,1.641,0,0,1-.58-.1,1.385,1.385,0,0,1-.475-.285,1.37,1.37,0,0,1-.32-.445,1.52,1.52,0,0,1,0-1.16,1.363,1.363,0,0,1,.8-.73,1.7,1.7,0,0,1,.58-.1,1.339,1.339,0,0,1,.52.1,1.087,1.087,0,0,1,.4.285,1.288,1.288,0,0,1,.25.445,1.765,1.765,0,0,1,.09.58v.26h-1.92a.641.641,0,0,0,.215.375.6.6,0,0,0,.41.14A.633.633,0,0,0,110.4,7a.91.91,0,0,0,.245-.235l.58.425Zm-.7-1.18a.482.482,0,0,0-.14-.36.49.49,0,0,0-.37-.15.6.6,0,0,0-.24.045.556.556,0,0,0-.18.115.451.451,0,0,0-.115.16.5.5,0,0,0-.045.19h1.1Z" transform="translate(-54.3 -2.45)" fill="#231815"/><path d="M117.085,5.77a.584.584,0,0,0-.48-.225.428.428,0,0,0-.205.05.179.179,0,0,0-.1.17.155.155,0,0,0,.1.145,1.587,1.587,0,0,0,.26.085c.1.025.215.05.335.075a1.138,1.138,0,0,1,.335.13.8.8,0,0,1,.26.24.7.7,0,0,1,.1.4.737.737,0,0,1-.115.43.884.884,0,0,1-.29.27,1.287,1.287,0,0,1-.395.145,2.167,2.167,0,0,1-.435.04,2.3,2.3,0,0,1-.57-.08,1.08,1.08,0,0,1-.485-.285l.5-.555a.869.869,0,0,0,.255.22.684.684,0,0,0,.33.075.835.835,0,0,0,.26-.04.157.157,0,0,0,.115-.15.168.168,0,0,0-.1-.155,1.2,1.2,0,0,0-.26-.09c-.1-.025-.215-.05-.335-.08a1.284,1.284,0,0,1-.335-.125.731.731,0,0,1-.26-.235.7.7,0,0,1-.1-.4.791.791,0,0,1,.35-.69,1.079,1.079,0,0,1,.36-.165,1.654,1.654,0,0,1,.415-.05,1.827,1.827,0,0,1,.535.08,1.033,1.033,0,0,1,.46.275l-.51.5Z" transform="translate(-57.7 -2.46)" fill="#231815"/><path d="M121.6,8.95a.548.548,0,0,1,.04-.2.5.5,0,0,1,.11-.165.467.467,0,0,1,.165-.1.52.52,0,0,1,.4,0,.451.451,0,0,1,.27.27.528.528,0,0,1,.04.2.462.462,0,0,1-.04.2.516.516,0,0,1-.1.165.467.467,0,0,1-.165.105.529.529,0,0,1-.2.04.549.549,0,0,1-.2-.04.516.516,0,0,1-.165-.105.56.56,0,0,1-.11-.165.548.548,0,0,1-.04-.2" transform="translate(-60.8 -4.22)" fill="#231815"/><path d="M127.99,7.725H127.2V7.36h-.01a1.288,1.288,0,0,1-.11.155.977.977,0,0,1-.17.14.928.928,0,0,1-.225.1.961.961,0,0,1-.275.04,1.142,1.142,0,0,1-.51-.1.79.79,0,0,1-.305-.265,1.114,1.114,0,0,1-.145-.405,3.14,3.14,0,0,1-.035-.5V5.045h.83V6.36a1.928,1.928,0,0,0,.01.24.673.673,0,0,0,.05.23.35.35,0,0,0,.37.235.513.513,0,0,0,.26-.06.406.406,0,0,0,.15-.155.6.6,0,0,0,.07-.22,2.059,2.059,0,0,0,.015-.255V5.04H128V7.72Z" transform="translate(-62.705 -2.52)" fill="#231815"/><path d="M135.165,6.24h-.76V5.885h-.01a1.091,1.091,0,0,1-.13.145.92.92,0,0,1-.19.135,1.108,1.108,0,0,1-.235.1.953.953,0,0,1-.27.04,1.423,1.423,0,0,1-.54-.1,1.357,1.357,0,0,1-.42-.285,1.263,1.263,0,0,1-.265-.44,1.665,1.665,0,0,1-.1-.56,1.793,1.793,0,0,1,.085-.54,1.582,1.582,0,0,1,.24-.455,1.174,1.174,0,0,1,.385-.315,1.073,1.073,0,0,1,.515-.12,1.391,1.391,0,0,1,.485.08.766.766,0,0,1,.365.275h.01V2.07h.83V6.24ZM134.4,4.9a.7.7,0,0,0-.175-.49.634.634,0,0,0-.49-.185.652.652,0,0,0-.49.185.7.7,0,0,0-.175.49.678.678,0,0,0,.175.49.634.634,0,0,0,.49.185.641.641,0,0,0,.49-.185.7.7,0,0,0,.175-.49" transform="translate(-66.125 -1.035)" fill="#231815"/><path d="M140.08,4.97h.795v.365h.01A.592.592,0,0,1,141,5.18a.94.94,0,0,1,.17-.14.928.928,0,0,1,.225-.1.961.961,0,0,1,.275-.04,1.221,1.221,0,0,1,.51.1.717.717,0,0,1,.3.27,1.121,1.121,0,0,1,.145.4,3.133,3.133,0,0,1,.04.505V7.65h-.83V6.335c0-.08,0-.155,0-.24a.816.816,0,0,0-.05-.23.431.431,0,0,0-.125-.17.387.387,0,0,0-.245-.065.513.513,0,0,0-.26.06.406.406,0,0,0-.15.155.711.711,0,0,0-.07.22,2.062,2.062,0,0,0-.015.255V7.655h-.83V4.975Z" transform="translate(-70.04 -2.45)" fill="#231815"/><path d="M147.13,8.95a.548.548,0,0,1,.04-.2.5.5,0,0,1,.11-.165.467.467,0,0,1,.165-.1.529.529,0,0,1,.2-.04.548.548,0,0,1,.2.04.577.577,0,0,1,.165.1.466.466,0,0,1,.105.165.529.529,0,0,1,.04.2.462.462,0,0,1-.04.2.516.516,0,0,1-.105.165.466.466,0,0,1-.165.105.52.52,0,0,1-.4,0,.516.516,0,0,1-.165-.105.477.477,0,0,1-.11-.165.548.548,0,0,1-.04-.2" transform="translate(-73.565 -4.22)" fill="#231815"/><path d="M152.58,5.84a.486.486,0,0,0-.17-.145.5.5,0,0,0-.24-.06.644.644,0,0,0-.49.19.773.773,0,0,0,0,.98.634.634,0,0,0,.49.185.462.462,0,0,0,.24-.06.791.791,0,0,0,.17-.145l.545.575a1.055,1.055,0,0,1-.455.28,1.653,1.653,0,0,1-.5.08,1.7,1.7,0,0,1-.58-.1,1.385,1.385,0,0,1-.475-.285,1.37,1.37,0,0,1-.32-.445,1.52,1.52,0,0,1,0-1.16A1.364,1.364,0,0,1,151.59,5a1.7,1.7,0,0,1,.58-.1,1.653,1.653,0,0,1,.5.08,1.055,1.055,0,0,1,.455.28l-.545.575Z" transform="translate(-75.34 -2.45)" fill="#231815"/><path d="M156.53,6.32a1.446,1.446,0,0,1,.115-.58,1.411,1.411,0,0,1,.315-.445,1.385,1.385,0,0,1,.475-.285,1.732,1.732,0,0,1,1.16,0,1.385,1.385,0,0,1,.475.285,1.287,1.287,0,0,1,.315.445,1.52,1.52,0,0,1,0,1.16,1.336,1.336,0,0,1-.315.445,1.385,1.385,0,0,1-.475.285,1.724,1.724,0,0,1-.58.1,1.7,1.7,0,0,1-.58-.1,1.385,1.385,0,0,1-.475-.285,1.287,1.287,0,0,1-.315-.445,1.366,1.366,0,0,1-.115-.58m.825,0a.7.7,0,0,0,.175.49.634.634,0,0,0,.49.185.641.641,0,0,0,.49-.185.7.7,0,0,0,.175-.49.678.678,0,0,0-.175-.49.634.634,0,0,0-.49-.185.652.652,0,0,0-.49.185.7.7,0,0,0-.175.49" transform="translate(-78.265 -2.455)" fill="#231815"/><path d="M164.145,4.97h.795v.365h.01a.593.593,0,0,1,.11-.155.94.94,0,0,1,.17-.14.928.928,0,0,1,.225-.1.961.961,0,0,1,.275-.04,1.069,1.069,0,0,1,.5.115.739.739,0,0,1,.33.365.868.868,0,0,1,.35-.37,1.027,1.027,0,0,1,.5-.11,1.04,1.04,0,0,1,.455.09.711.711,0,0,1,.29.25,1.072,1.072,0,0,1,.155.37,2.194,2.194,0,0,1,.045.455V7.65h-.83V6.09a.615.615,0,0,0-.08-.325.307.307,0,0,0-.285-.135.571.571,0,0,0-.24.045.394.394,0,0,0-.155.13.577.577,0,0,0-.085.2,1.156,1.156,0,0,0-.025.23V7.65h-.83V6.23c0-.05,0-.105,0-.175a.549.549,0,0,0-.04-.2.373.373,0,0,0-.105-.16.321.321,0,0,0-.22-.065.5.5,0,0,0-.26.06.405.405,0,0,0-.15.155.6.6,0,0,0-.07.22,2.062,2.062,0,0,0-.015.255V7.655h-.83V4.975Z" transform="translate(-82.065 -2.45)" fill="#231815"/></svg>