<svg xmlns="http://www.w3.org/2000/svg" width="36" height="36" viewBox="0 0 36 36"><path d="M235-721.167l-13.414,13.414a2.6,2.6,0,0,1-1.916.753,2.6,2.6,0,0,1-1.916-.753,2.6,2.6,0,0,1-.753-1.916,2.6,2.6,0,0,1,.753-1.916L231.167-725l-13.414-13.415a2.6,2.6,0,0,1-.753-1.916,2.6,2.6,0,0,1,.753-1.916,2.6,2.6,0,0,1,1.916-.753,2.6,2.6,0,0,1,1.916.753L235-728.833l13.414-13.415a2.6,2.6,0,0,1,1.916-.753,2.6,2.6,0,0,1,1.916.753,2.6,2.6,0,0,1,.753,1.916,2.6,2.6,0,0,1-.753,1.916L238.833-725l13.414,13.414a2.6,2.6,0,0,1,.753,1.916,2.6,2.6,0,0,1-.753,1.916,2.6,2.6,0,0,1-1.916.753,2.6,2.6,0,0,1-1.916-.753Z" transform="translate(-217 743)"/></svg>