<svg xmlns="http://www.w3.org/2000/svg" xmlns:xlink="http://www.w3.org/1999/xlink" width="24" height="24" viewBox="0 0 24 24"><defs><clipPath id="a"><rect width="24" height="24" transform="translate(0 0)" fill="none"/></clipPath></defs><g transform="translate(0 -0.406)"><g transform="translate(0 0.406)" clip-path="url(#a)"><path d="M24.065,12.032A12.032,12.032,0,1,0,9.126,23.711v-8H6.645V12.032H9.126V10.448c0-4.1,1.853-5.994,5.874-5.994a13.267,13.267,0,0,1,2.616.3V8.086c-.284-.03-.777-.045-1.39-.045-1.973,0-2.735.747-2.735,2.69v1.3h3.93l-.675,3.677H13.49v8.267A12.034,12.034,0,0,0,24.065,12.032" transform="translate(0 -0.065)" fill="#0866ff"/><path d="M148.155,103.8l.675-3.677H144.9v-1.3c0-1.943.762-2.69,2.735-2.69.613,0,1.106.015,1.39.045V92.847a13.267,13.267,0,0,0-2.616-.3c-4.021,0-5.874,1.9-5.874,5.994v1.584h-2.481V103.8h2.481v8a12.1,12.1,0,0,0,4.365.266V103.8Z" transform="translate(-131.409 -88.159)" fill="#fff"/></g></g></svg>