<svg xmlns="http://www.w3.org/2000/svg" xmlns:xlink="http://www.w3.org/1999/xlink" width="94.535" height="93.82" viewBox="0 0 94.535 93.82"><defs><clipPath id="a"><rect width="94.535" height="93.82"/></clipPath></defs><g transform="translate(0)"><g clip-path="url(#a)"><path d="M34.727,42.359a16.7,16.7,0,1,0-16.684-16.7,16.711,16.711,0,0,0,16.684,16.7m0-30.1a13.4,13.4,0,1,1-13.388,13.4,13.409,13.409,0,0,1,13.388-13.4" transform="translate(31.232 -3.053)"/><path d="M41.493,122.818H85.651a1.649,1.649,0,0,0,1.585-2.1L77.481,86.354a1.648,1.648,0,0,0-1.585-1.2H31.738a1.649,1.649,0,0,0-1.585,2.1l9.755,34.364a1.647,1.647,0,0,0,1.585,1.2m41.977-3.3H42.738L33.92,88.455H74.651Z" transform="translate(-12.593 -28.997)"/><path d="M21.654,100.93H33.17a3.356,3.356,0,0,0,3.351-3.353V91.33a1.648,1.648,0,1,0-3.3,0v6.247a.055.055,0,0,1-.055.055H21.654a1.649,1.649,0,0,0,0,3.3" transform="translate(44.83 -30.538)"/><path d="M5.411,140.561h17.35a1.649,1.649,0,0,0,0-3.3H5.411a1.649,1.649,0,0,0,0,3.3" transform="translate(67.647 -46.74)"/><path d="M108.407,44.653a2.427,2.427,0,0,0,2.427-2.427V37.263A10.68,10.68,0,0,0,121.171,26.6V10.67A10.679,10.679,0,0,0,110.508,0H88.769A10.679,10.679,0,0,0,78.106,10.67V26.6a10.679,10.679,0,0,0,10.663,10.67H98.811L106.757,44a2.419,2.419,0,0,0,1.65.652m2.1-41.354a7.377,7.377,0,0,1,7.367,7.372V26.6a7.377,7.377,0,0,1-7.367,7.372h-.545a2.428,2.428,0,0,0-2.425,2.427v3.945l-6.751-5.721a2.44,2.44,0,0,0-1.652-.651H88.769A7.377,7.377,0,0,1,81.4,26.6V10.67A7.377,7.377,0,0,1,88.769,3.3Zm-.545,33.97h0Z" transform="translate(-78.106)"/><path d="M32.593,105.393H46.2A10.82,10.82,0,0,0,57,94.58V81.909A17.646,17.646,0,0,0,39.379,64.276H17.468A17.686,17.686,0,0,0,.016,79.467a1.648,1.648,0,1,0,3.265.454A14.375,14.375,0,0,1,17.468,67.575H39.379A14.344,14.344,0,0,1,53.7,81.909V94.58a7.518,7.518,0,0,1-7.507,7.513h-13.6a1.649,1.649,0,0,0,0,3.3" transform="translate(37.537 -21.887)"/></g></g></svg>