<svg xmlns="http://www.w3.org/2000/svg" width="351.061" height="72" viewBox="0 0 351.061 72"><g transform="translate(-770 -1861)"><g transform="translate(-19.998 747)"><g transform="translate(857.998 1114)"><text transform="translate(107 58)" font-size="50" font-family="SourceHanSansTW-Bold, Source Han Sans TW" font-weight="700" letter-spacing="0.1em"><tspan x="-107.5" y="0">注意事項</tspan></text></g></g><g transform="translate(0.109)"><g transform="translate(1071.739 1868.811)"><path d="M4.381,12.038,2.237,13.254A5.038,5.038,0,0,1,0,9.184C0,7.966.2.011,22.49,0,44.777.011,45.06,7.966,45.06,9.184a5.011,5.011,0,0,1-2.22,4.071l-2.253-1.214a3.894,3.894,0,0,0,1.568-2.813c0-4.423-8.085-6.921-19.664-6.921S2.547,4.979,2.577,9.227c.008,1.062.881,2,1.8,2.81" transform="translate(31.599 9.659) rotate(90)" fill="#070303"/><path d="M4.381,12.038,2.237,13.254A5.038,5.038,0,0,1,0,9.184C0,7.966.2.011,22.49,0,44.777.011,45.06,7.966,45.06,9.184a5.011,5.011,0,0,1-2.22,4.071l-2.253-1.214a3.894,3.894,0,0,0,1.568-2.813c0-4.423-8.085-6.921-19.664-6.921S2.547,4.979,2.577,9.227c.008,1.062.881,2,1.8,2.81" transform="translate(20.405 9.659) rotate(90)" fill="#070303"/><path d="M3.33,9.578A30.765,30.765,0,0,1,9.417,5.312.358.358,0,0,0,9.61,5c.013-2.16.238-2.734,1.17-3.665C11.925.186,15.211,0,20.952,0s9.027.186,10.171,1.33c.932.932,1.157,1.506,1.17,3.665a.358.358,0,0,0,.193.316,30.764,30.764,0,0,1,6.088,4.267,9.668,9.668,0,0,1,3.33,7.343v2.43a.1.1,0,0,1-.148.087l-2.488-1.382a.1.1,0,0,1-.052-.088c.015-2.007.776-5.108-7.123-9.881l-.006,0C30.806,7.4,29.529,7.1,29.529,4.374c0-1.437.555-1.749-8.577-1.749s-8.577.313-8.577,1.749C12.375,7.1,11.1,7.4,9.818,8.084l-.006,0c-7.9,4.774-7.139,7.874-7.123,9.881a.1.1,0,0,1-.052.088L.148,19.439A.1.1,0,0,1,0,19.352v-2.43A9.668,9.668,0,0,1,3.33,9.578" transform="translate(49.212 11.197) rotate(90)" fill="#070303"/></g><g transform="translate(769.891 1878.47)"><g transform="translate(0 0)"><path d="M4.381,1.217,2.237,0A5.038,5.038,0,0,0,0,4.071c0,1.218.2,9.173,22.49,9.184C44.777,13.244,45.06,5.289,45.06,4.071A5.012,5.012,0,0,0,42.839,0L40.586,1.214a3.894,3.894,0,0,1,1.568,2.813c0,4.423-8.085,6.921-19.664,6.921S2.547,8.275,2.577,4.027c.008-1.062.881-2,1.8-2.81" transform="translate(30.868) rotate(90)" fill="#070303"/><path d="M4.381,1.217,2.237,0A5.038,5.038,0,0,0,0,4.071c0,1.218.2,9.173,22.49,9.184C44.777,13.244,45.06,5.289,45.06,4.071A5.012,5.012,0,0,0,42.839,0L40.586,1.214a3.894,3.894,0,0,1,1.568,2.813c0,4.423-8.085,6.921-19.664,6.921S2.547,8.275,2.577,4.027c.008-1.062.881-2,1.8-2.81" transform="translate(42.062) rotate(90)" fill="#070303"/><path d="M3.33,9.873A30.765,30.765,0,0,0,9.417,14.14a.358.358,0,0,1,.193.316c.013,2.16.238,2.734,1.17,3.665,1.144,1.144,4.43,1.33,10.171,1.33s9.027-.186,10.171-1.33c.932-.932,1.157-1.506,1.17-3.665a.358.358,0,0,1,.193-.316,30.764,30.764,0,0,0,6.088-4.267A9.668,9.668,0,0,0,41.9,2.529V.1a.1.1,0,0,0-.148-.087L39.267,1.395a.1.1,0,0,0-.052.088c.015,2.007.776,5.108-7.123,9.881l-.006,0c-1.279.682-2.557.982-2.557,3.711,0,1.437.555,1.75-8.577,1.75s-8.577-.313-8.577-1.75c0-2.729-1.278-3.029-2.557-3.711l-.006,0C1.912,6.59,2.673,3.49,2.688,1.483a.1.1,0,0,0-.052-.088L.148.013A.1.1,0,0,0,0,.1v2.43A9.668,9.668,0,0,0,3.33,9.873" transform="translate(19.452 1.538) rotate(90)" fill="#070303"/></g></g></g></g></svg>