<svg xmlns="http://www.w3.org/2000/svg" xmlns:xlink="http://www.w3.org/1999/xlink" width="94.535" height="93.82" viewBox="0 0 94.535 93.82"><defs><clipPath id="a"><rect width="94.535" height="93.82"/></clipPath></defs><g clip-path="url(#a)"><path d="M34.729,42.359a16.7,16.7,0,1,1,16.684-16.7,16.711,16.711,0,0,1-16.684,16.7m0-30.1a13.4,13.4,0,1,0,13.388,13.4,13.409,13.409,0,0,0-13.388-13.4" transform="translate(-6.153 -3.053)"/><path d="M75.9,122.818H31.738a1.649,1.649,0,0,1-1.585-2.1l9.755-34.363a1.648,1.648,0,0,1,1.585-1.2H85.651a1.649,1.649,0,0,1,1.585,2.1l-9.755,34.364a1.647,1.647,0,0,1-1.585,1.2m-41.977-3.3H74.652L83.47,88.455H42.739Z" transform="translate(-10.261 -28.997)"/><path d="M34.873,100.93H23.357a3.356,3.356,0,0,1-3.351-3.353V91.33a1.648,1.648,0,1,1,3.3,0v6.247a.055.055,0,0,0,.055.055H34.873a1.649,1.649,0,0,1,0,3.3" transform="translate(-6.822 -30.538)"/><path d="M22.761,140.561H5.411a1.649,1.649,0,0,1,0-3.3h17.35a1.649,1.649,0,0,1,0,3.3" transform="translate(-1.283 -46.74)"/><path d="M90.87,44.653a2.427,2.427,0,0,1-2.427-2.427V37.263A10.68,10.68,0,0,1,78.106,26.6V10.67A10.679,10.679,0,0,1,88.769,0h21.739a10.679,10.679,0,0,1,10.663,10.67V26.6a10.679,10.679,0,0,1-10.663,10.67H100.466L92.52,44a2.419,2.419,0,0,1-1.65.652M88.769,3.3A7.377,7.377,0,0,0,81.4,10.67V26.6a7.377,7.377,0,0,0,7.367,7.372h.545A2.428,2.428,0,0,1,91.739,36.4v3.945l6.751-5.721a2.44,2.44,0,0,1,1.652-.651h10.366a7.377,7.377,0,0,0,7.367-7.372V10.67A7.377,7.377,0,0,0,110.508,3.3Zm.545,33.97h0Z" transform="translate(-26.636)"/><path d="M24.405,105.393H10.8A10.82,10.82,0,0,1,0,94.58V81.909A17.646,17.646,0,0,1,17.619,64.276H39.531A17.686,17.686,0,0,1,56.983,79.467a1.648,1.648,0,1,1-3.265.454A14.375,14.375,0,0,0,39.531,67.575H17.619A14.344,14.344,0,0,0,3.3,81.909V94.58a7.518,7.518,0,0,0,7.507,7.513h13.6a1.649,1.649,0,0,1,0,3.3" transform="translate(0 -21.887)"/></g></svg>