<svg xmlns="http://www.w3.org/2000/svg" xmlns:xlink="http://www.w3.org/1999/xlink" width="34.987" height="28.799" viewBox="0 0 34.987 28.799"><defs><clipPath id="a"><rect width="31.801" height="14.894" fill="#fff"/></clipPath></defs><g transform="translate(7.447) rotate(30)"><g clip-path="url(#a)"><path d="M2.527,7.555a23.336,23.336,0,0,0,4.618,3.268l.148.243c.01,1.655.181,2.095.888,2.809.868.877,3.362,1.019,7.719,1.019s6.85-.142,7.719-1.019c.708-.714.878-1.154.888-2.811l.146-.24a23.331,23.331,0,0,0,4.62-3.269A7.444,7.444,0,0,0,31.8,1.928V.067L31.688,0,29.8,1.059l-.039.067c.012,1.538.589,3.914-5.406,7.571l-.005,0c-.971.522-1.94.752-1.94,2.843,0,1.1.421,1.341-6.509,1.341s-6.509-.24-6.509-1.341c0-2.091-.97-2.321-1.941-2.843l0,0C1.451,5.04,2.028,2.664,2.04,1.126L2,1.059.112,0,0,.067V1.928A7.444,7.444,0,0,0,2.527,7.555" transform="translate(0 0)" fill="#fff"/></g></g></svg>