<svg xmlns="http://www.w3.org/2000/svg" xmlns:xlink="http://www.w3.org/1999/xlink" width="74.391" height="109.278" viewBox="0 0 74.391 109.278"><defs><clipPath id="a"><rect width="74.391" height="109.278"/></clipPath></defs><g transform="translate(0 0)" clip-path="url(#a)"><path d="M98.534,753.27a1.419,1.419,0,0,0-1.419,1.419v43.843a5.371,5.371,0,0,0,5.351,5.351h56.126a5.371,5.371,0,0,0,5.351-5.351V754.689a1.419,1.419,0,0,0-1.42-1.419Zm1.42,2.839H161.1v42.424a2.476,2.476,0,0,1-2.512,2.512H102.466a2.476,2.476,0,0,1-2.512-2.512Z" transform="translate(-89.552 -694.605)"/><rect width="12.482" height="48.613" transform="translate(34.736 60.084)"/><path d="M2.9,189.743a4.859,4.859,0,0,0-2.5,6.373l1.371,3.136a4.861,4.861,0,0,0,6.374,2.5l61.168-26.738a4.861,4.861,0,0,0,2.5-6.375L70.438,165.5a4.859,4.859,0,0,0-6.373-2.5Zm1.137,2.6L65.2,165.607a1.965,1.965,0,0,1,2.634,1.032l1.371,3.136a1.966,1.966,0,0,1-1.031,2.636L7.009,199.149a1.967,1.967,0,0,1-2.635-1.034L3,194.979a1.965,1.965,0,0,1,1.032-2.635" transform="translate(0 -149.94)"/><path d="M60.016,183.883a6.67,6.67,0,0,0-2.083,1.216,8.644,8.644,0,0,0-2.612,4.746,8.382,8.382,0,0,0,.312,5.376,6.984,6.984,0,0,0,3.333,3.311c2.861,1.435,6.6,1.62,10.378,1.4a79.455,79.455,0,0,0,15.4-2.755l2.542-.746-2.028-1.7a75.72,75.72,0,0,0-12.834-8.534c-3.351-1.681-6.848-2.971-10.064-2.783a8.206,8.206,0,0,0-2.346.474m-.227,3.362a4.378,4.378,0,0,1,2.74-1c2.283-.134,5.487.911,8.624,2.485a60.962,60.962,0,0,1,9.994,6.415A63.964,63.964,0,0,1,69.178,197.1c-3.549.208-6.935-.1-8.94-1.1a4.026,4.026,0,0,1-2.019-1.943,5.518,5.518,0,0,1-.131-3.573,5.763,5.763,0,0,1,1.7-3.232" transform="translate(-50.746 -169.108)"/><path d="M420.9.743a8.206,8.206,0,0,0-1.941,1.4c-2.323,2.233-3.75,5.675-4.792,9.277a75.625,75.625,0,0,0-2.451,15.215l-.129,2.646,2.274-1.36a79.445,79.445,0,0,0,12.482-9.433c2.731-2.626,5.132-5.493,6.022-8.568a6.984,6.984,0,0,0-.167-4.7,8.382,8.382,0,0,0-3.734-3.88A8.643,8.643,0,0,0,423.207.04a6.667,6.667,0,0,0-2.307.7m2.622,2.117a5.76,5.76,0,0,1,3.527.947,5.515,5.515,0,0,1,2.534,2.523,4.024,4.024,0,0,1,.055,2.8c-.624,2.155-2.7,4.849-5.261,7.313a63.889,63.889,0,0,1-9.561,7.454,60.92,60.92,0,0,1,2.077-11.689c.975-3.372,2.385-6.433,4.033-8.018a4.376,4.376,0,0,1,2.6-1.331" transform="translate(-379.533 0.001)"/><rect width="12.482" height="10.933" transform="translate(28.064 29.621) rotate(-23.611)"/><path d="M627.481,558.516a8.955,8.955,0,0,1-3.784,4.968,8.958,8.958,0,0,1,3.785,4.973,8.958,8.958,0,0,1,3.79-4.969,8.958,8.958,0,0,1-3.791-4.971" transform="translate(-575.124 -515.019)"/><path d="M756.257,616.832a7.882,7.882,0,0,1-3.331,4.373,7.885,7.885,0,0,1,3.332,4.377,7.886,7.886,0,0,1,3.336-4.374,7.883,7.883,0,0,1-3.336-4.376" transform="translate(-694.288 -568.793)"/><path d="M769.412,397.364a11.528,11.528,0,0,1-4.871,6.394,11.53,11.53,0,0,1,4.872,6.4,11.529,11.529,0,0,1,4.878-6.4,11.529,11.529,0,0,1-4.879-6.4" transform="translate(-704.999 -366.417)"/><path d="M517.537,500.262a6.861,6.861,0,0,1-2.9,3.8,6.862,6.862,0,0,1,2.9,3.809,6.86,6.86,0,0,1,2.9-3.806,6.86,6.86,0,0,1-2.9-3.808" transform="translate(-474.558 -461.302)"/><path d="M353.245,561.52a10.477,10.477,0,0,1-4.427,5.811,10.48,10.48,0,0,1,4.428,5.818,10.48,10.48,0,0,1,4.433-5.814,10.478,10.478,0,0,1-4.434-5.816" transform="translate(-321.652 -517.789)"/></g></svg>