<svg xmlns="http://www.w3.org/2000/svg" width="299.275" height="99.325" viewBox="0 0 299.275 99.325"><g transform="translate(-810.526 -1114)"><g transform="translate(810.526 1114)"><g transform="translate(-0.103 18)"><g transform="translate(281.238 13.625)"><path d="M459.072,339.807c-2.183-.773-2.028-3.092-1.638-4.561,0-.155.234-.232.39-.155,1.4.7,3.119,2.783,1.56,4.638C459.384,339.807,459.15,339.884,459.072,339.807Z" transform="translate(-446.789 -335.061)"/><path d="M462.116,346.3c-.78-1.624.078-3.092,1.326-4.1.468-.309,1.014-1,1.326-.464.468,1.546.156,4.407-2.261,4.638-.156,0-.234,0-.312-.155Z" transform="translate(-447.806 -336.532)"/><path d="M462.365,355.661c-.7-2.165,1.715-4.1,3.275-4.561.156,0,.39,0,.39.309.078,1-.312,3.324-1.56,4.02C464.158,355.661,462.677,356.28,462.365,355.661Z" transform="translate(-447.899 -338.702)"/><path d="M460.6,365.5c-.078-1.933,1.56-3.324,3.275-3.788.624-.077,1.56-.7,1.56.077-.234,1.392-1.014,3.4-2.573,3.943-.39.155-2.105.464-2.261-.232Z" transform="translate(-447.536 -341.038)"/><path d="M456.6,375.136c.39-2.629,3.665-3.479,5.693-3.247a.341.341,0,0,1,.312.464c-.39,1.16-1.872,3.4-3.587,3.556-.468.077-2.261,0-2.339-.773Z" transform="translate(-446.656 -343.41)"/><path d="M450.286,384.094c1.014-2.628,4.679-2.706,6.706-2.087.78.387-.39,1.237-.858,1.778-1.482,1.546-3.9,2.474-5.771.7-.156-.077-.156-.309-.078-.464Z" transform="translate(-445.255 -345.641)"/><path d="M458.921,347.076c.39-1.7-1.092-2.783-2.5-3.015-.546,0-1.248-.387-1.326.155.312,1.469,1.4,3.324,3.587,3.092A.206.206,0,0,0,458.921,347.076Z" transform="translate(-446.327 -337.073)"/><path d="M459.109,355.7c1.014-2.165-1.482-3.788-3.119-4.1-.156,0-.39.077-.39.232,0,1.933,1.014,3.788,3.2,4.02C458.953,355.852,459.031,355.852,459.109,355.7Z" transform="translate(-446.437 -338.815)"/><path d="M457.555,364.547c1.17-1.546.156-3.479-1.326-4.329-.546-.232-1.248-1.005-1.56-.387-.39,1.933.234,4.252,2.5,4.87a.588.588,0,0,0,.39-.077Z" transform="translate(-446.208 -340.628)"/><path d="M453.837,373.2c2.105-1.855.312-4.639-1.326-5.721a.378.378,0,0,0-.546.077c-.468.85-.78,3.015,0,4.1.156.309,1.248,1.855,1.95,1.469Z" transform="translate(-445.532 -342.397)"/><path d="M448.006,381.225c2.651-1.392,1.4-4.793,0-6.262-.624-.464-.78.464-1.17,1.005a4.123,4.123,0,0,0,.78,5.18.294.294,0,0,0,.468,0Z" transform="translate(-444.379 -344.088)"/><path d="M444.123,378.426h.234a35.17,35.17,0,0,0,12.477-35.794c0-.155-.156-.232-.312-.232s-.234.155-.234.309a34.754,34.754,0,0,1-12.321,35.253c-.156.077-.156.232,0,.387A.273.273,0,0,0,444.123,378.426Z" transform="translate(-443.85 -336.726)"/></g><g transform="translate(0.103 13.625)"><path d="M458.122,339.807c2.165-.773,2.01-3.092,1.624-4.561,0-.155-.232-.232-.387-.155-1.392.7-3.092,2.783-1.546,4.639C457.813,339.807,458.045,339.884,458.122,339.807Z" transform="translate(-452.315 -335.061)"/><path d="M464.628,346.3c.773-1.624-.077-3.092-1.314-4.1-.464-.309-1.005-1.005-1.314-.464-.464,1.546-.155,4.407,2.242,4.638.155,0,.232,0,.309-.155Z" transform="translate(-460.83 -336.532)"/><path d="M465.883,355.661c.7-2.165-1.7-4.1-3.247-4.561-.155,0-.386,0-.386.309-.077,1,.309,3.324,1.546,4.02C464.1,355.661,465.574,356.28,465.883,355.661Z" transform="translate(-462.24 -338.702)"/><path d="M465.39,365.5c.077-1.933-1.546-3.324-3.247-3.788-.618-.077-1.546-.7-1.546.077.232,1.392,1.005,3.4,2.551,3.943.387.155,2.087.464,2.242-.232Z" transform="translate(-460.356 -341.038)"/><path d="M462.573,375.136c-.386-2.629-3.634-3.479-5.643-3.247a.341.341,0,0,0-.309.464c.387,1.16,1.855,3.4,3.556,3.556.464.077,2.242,0,2.319-.773Z" transform="translate(-454.446 -343.41)"/><path d="M457.142,384.094c-1-2.628-4.638-2.706-6.648-2.087-.773.387.387,1.237.85,1.778,1.469,1.546,3.865,2.474,5.721.7.155-.077.155-.309.077-.464Z" transform="translate(-444.144 -345.641)"/><path d="M455.163,347.076c-.387-1.7,1.082-2.783,2.474-3.015.541,0,1.237-.387,1.314.155-.309,1.469-1.392,3.324-3.556,3.092A.205.205,0,0,1,455.163,347.076Z" transform="translate(-449.663 -337.073)"/><path d="M455.833,355.7c-1.005-2.165,1.469-3.788,3.092-4.1.155,0,.387.077.387.232,0,1.933-1.005,3.788-3.17,4.02C455.987,355.852,455.91,355.852,455.833,355.7Z" transform="translate(-450.412 -338.815)"/><path d="M455.066,364.547c-1.16-1.546-.155-3.479,1.314-4.329.541-.232,1.237-1.005,1.546-.386.387,1.933-.232,4.252-2.474,4.87a.579.579,0,0,1-.387-.077Z" transform="translate(-448.33 -340.629)"/><path d="M452.439,373.2c-2.087-1.855-.309-4.639,1.314-5.721a.373.373,0,0,1,.541.077c.464.85.773,3.015,0,4.1-.155.309-1.237,1.855-1.933,1.469Z" transform="translate(-442.689 -342.398)"/><path d="M447.8,381.225c-2.629-1.392-1.392-4.793,0-6.262.618-.464.773.464,1.16,1.005a4.149,4.149,0,0,1-.773,5.18.29.29,0,0,1-.464,0Z" transform="translate(-433.411 -344.088)"/><path d="M457.429,378.426H457.2a35.339,35.339,0,0,1-12.369-35.794c0-.155.155-.232.309-.232s.232.155.232.309a34.921,34.921,0,0,0,12.215,35.253c.155.077.155.232,0,.387A.27.27,0,0,1,457.429,378.426Z" transform="translate(-439.715 -336.727)"/></g></g><text transform="translate(149.473 58)" font-size="50" font-family="SourceHanSansTW-Bold, Source Han Sans TW" font-weight="700" letter-spacing="0.1em"><tspan x="-107.5" y="0">四大天王</tspan></text></g><text transform="translate(960 1207.325)" font-size="21" font-family="SourceHanSansTW-Normal, Source Han Sans TW" letter-spacing="0.05em"><tspan x="-54.6" y="0">即時排行榜</tspan></text></g></svg>