<svg xmlns="http://www.w3.org/2000/svg" width="23.982" height="24" viewBox="0 0 23.982 24"><path d="M22.182.048C21.666.009,17.858,0,11.986,0S2.316.009,1.794.048A1.957,1.957,0,0,0,.525.525,1.811,1.811,0,0,0,.051,1.746C.015,2.247,0,6.109,0,11.986s.012,9.742.051,10.24a1.845,1.845,0,0,0,.477,1.221,2.009,2.009,0,0,0,1.269.477c.522.045,4.324.075,10.2.075s9.673-.03,10.2-.075a1.989,1.989,0,0,0,1.269-.477,1.845,1.845,0,0,0,.477-1.221c.039-.5.048-4.366.048-10.24s-.009-9.739-.048-10.24A1.845,1.845,0,0,0,23.457.525,1.976,1.976,0,0,0,22.188.048Z" transform="translate(0 0)" fill="#f46c00"/><path d="M26.451,17.7c-.915-.045-2.154-.063-4.306-.063s-3.393.018-4.306.063a3.605,3.605,0,0,0-2.3.846,3.219,3.219,0,0,0-1.017,2.379c-.015.966-.018,1.569-.018,3.129s0,2.178.018,3.129a3.244,3.244,0,0,0,1.017,2.379,3.629,3.629,0,0,0,2.3.846c.909.048,2.154.09,4.306.09s3.39-.042,4.306-.09a3.616,3.616,0,0,0,2.3-.846,3.25,3.25,0,0,0,1.017-2.379c.015-.951.018-1.563.018-3.129s0-2.163-.018-3.129a3.219,3.219,0,0,0-1.017-2.379A3.589,3.589,0,0,0,26.451,17.7Z" transform="translate(-10.156 -12.347)" fill="#fff"/><path d="M48.692,26.69H48.05v4.549h.642c.54,0,.723-.387.723-.81V27.5c0-.423-.183-.81-.723-.81Z" transform="translate(-33.633 -18.682)"/><path d="M35.22,49.3a1.424,1.424,0,0,0,2.847,0Z" transform="translate(-24.653 -34.508)"/><path d="M28.842,30.494c0,.405-.174.777-.7.777s-.7-.372-.7-.777v-3.8h1.389v3.8Z" transform="translate(-19.214 -18.682)"/></svg>