<svg xmlns="http://www.w3.org/2000/svg" width="203.12" height="40" viewBox="0 0 203.12 40"><path d="M36.97.08C36.11.015,29.764,0,19.977,0S3.86.015,2.99.08a3.261,3.261,0,0,0-2.115.8A3.018,3.018,0,0,0,.085,2.91C.025,3.745,0,10.181,0,19.977S.02,36.215.085,37.045a3.074,3.074,0,0,0,.8,2.035,3.348,3.348,0,0,0,2.115.8c.87.075,7.206.125,16.992.125s16.122-.05,16.992-.125a3.315,3.315,0,0,0,2.115-.8,3.074,3.074,0,0,0,.8-2.035c.065-.83.08-7.276.08-17.067S39.955,3.745,39.89,2.91a3.074,3.074,0,0,0-.8-2.035A3.293,3.293,0,0,0,36.98.08Z" transform="translate(0)" fill="#f46c00"/><path d="M34.412,17.745c-1.525-.075-3.59-.105-7.176-.105s-5.656.03-7.176.105a6.009,6.009,0,0,0-3.825,1.41,5.364,5.364,0,0,0-1.7,3.965c-.025,1.61-.03,2.615-.03,5.216s.005,3.63.03,5.216a5.406,5.406,0,0,0,1.7,3.965,6.048,6.048,0,0,0,3.825,1.41c1.515.08,3.59.15,7.176.15s5.651-.07,7.176-.15a6.026,6.026,0,0,0,3.825-1.41,5.417,5.417,0,0,0,1.7-3.965c.025-1.585.03-2.605.03-5.216s-.005-3.605-.03-5.216a5.364,5.364,0,0,0-1.7-3.965A5.981,5.981,0,0,0,34.412,17.745Z" transform="translate(-7.254 -8.819)" fill="#fff"/><path d="M49.12,26.69H48.05v7.581h1.07c.9,0,1.205-.645,1.205-1.35V28.045c0-.705-.305-1.35-1.205-1.35Z" transform="translate(-24.022 -13.343)"/><path d="M35.22,49.3a2.373,2.373,0,0,0,4.746,0Z" transform="translate(-17.608 -24.647)"/><path d="M29.77,33.031c0,.675-.29,1.3-1.16,1.3s-1.16-.62-1.16-1.3V26.69h2.315v6.341Z" transform="translate(-13.723 -13.343)"/><path d="M349.86,32.163c.105-.74.245-1.865.415-3.385l2.425.2c-.105,1.63-.23,2.865-.365,3.715s-.44,2.14-.91,3.875l-2.615-.36q.863-2.933,1.055-4.041Zm9.766-16.547a59.411,59.411,0,0,1-5.236,8.5l3.19-.2q-.255-.975-.54-1.89l2.14-.325a32.912,32.912,0,0,1,1.565,4.951l-2.555.36c-.045-.28-.085-.585-.125-.91l-1.755.165V38.943h-2.555V26.5l-4.216.325-.19-2.31,1.69-.13q1.148-1.463,2.235-3a33.367,33.367,0,0,0-3.961-4.071l1.405-2.05c.15.13.32.285.51.455a38.349,38.349,0,0,0,2.775-4.656l2.235,1.01a55.073,55.073,0,0,1-3.285,5.376c.555.565,1.115,1.185,1.69,1.855q1.373-2.28,2.615-4.756l2.36,1.075Zm-1.785,18.732a55.572,55.572,0,0,0-.32-5.571l2.2-.065q.383,4.036.35,5.6l-2.235.035Zm3.38,4.591V12.13H377.5V36.138q0,3.09-3.065,3.1h-.415a2.437,2.437,0,0,1-2.44-2.005l-.115-.6h2.175a1.171,1.171,0,0,0,1.31-1.335V14.605H363.782V38.938h-2.555Zm12.832-12.117H368.4v4.591c0,.305.14.455.415.455h4.631v2.475h-5.876q-1.725,0-1.725-1.79V26.822H364.7V24.607h3.575V21.871H364.7V19.656h1.6l-1.15-3.55,2.425-.39,1.18,3.94h1.435l1.31-3.81,2.455.3-1.31,3.515h1.405v2.215h-3.35v2.735h3.35v2.215Z" transform="translate(-174.383 -5.534)" fill="#001655"/><path d="M229.4,31.177v7.816h-2.555V31.733c-.19.28-.4.555-.605.815A36.218,36.218,0,0,1,222,36.813l-1.755-1.79a27.819,27.819,0,0,0,3.99-3.91,26.466,26.466,0,0,0,2.075-2.965h-5.171V25.672h5.716V23.066H221.87V20.591h2.105l-1.055-4.266h-1.565V13.85h5.491V11.245H229.4V13.85h5.3v2.475H233.3l-1.115,4.266H234.1v2.475h-4.691v2.605h5.3v2.475h-5.3v.165a27.188,27.188,0,0,0,4.471,3.615l-1.055,2.41a22.525,22.525,0,0,1-3.415-3.16Zm1.275-14.857h-5.106l1.02,4.266h3.03Zm12.642,22.808v-15.8h-4.566v.26a52.171,52.171,0,0,1-.64,8.826,21.354,21.354,0,0,1-2.4,6.676l-2.4-1.205a19.662,19.662,0,0,0,2.28-6.351,46.33,46.33,0,0,0,.59-7.946V13.165a57.75,57.75,0,0,0,10.661-1.985l1.34,2.115a82.058,82.058,0,0,1-9.446,2.02v5.536h10.536v2.475h-3.415V36.663a2.421,2.421,0,0,1-2.465,2.465Z" transform="translate(-110.106 -5.589)" fill="#001655"/><path d="M287.71,39.673V12.54h11.651V22.671h-9.1v17Zm2.555-23.063h6.546V14.655h-6.546Zm6.541,2.12H290.26v1.855h6.546Zm-3.99,5.406h16.472v2.085h-2.075v8.436l2.105-.2.16,1.92c-.745.085-1.5.185-2.265.3v2.475h-2.555V36.938q-5.813.555-12.352.815l-.1-2.18c.87-.045,1.745-.075,2.615-.1V26.222h-2.01Zm11.846,2.085h-7.276v1.855h7.276Zm0,3.71h-7.276v1.7h7.276Zm0,3.55h-7.276v1.89q3.736-.263,7.276-.49Zm9.8-20.943V37.523a2.137,2.137,0,0,1-2.4,2.44h-1.015a2.429,2.429,0,0,1-2.435-2l-.12-.605h2.545a.769.769,0,0,0,.86-.88V22.666h-9.1V12.54h11.651Zm-9.1,4.071h6.546V14.655h-6.546Zm6.546,2.12h-6.546v1.855h6.546Z" transform="translate(-143.837 -6.269)" fill="#001655"/><path d="M101.476,14.615V38.948H98.921V33.933q-3.03.915-6.576,1.725L91.8,33.183c.51-.11,1.01-.215,1.5-.325V14.615h-.735V12.14H102.4v2.475h-.925Zm-5.621,0v4.136h3.065V14.615Zm0,6.386v4.006h3.065V21H95.856Zm0,6.221v5.051q1.6-.36,3.065-.75v-4.3Zm15.322-11.791a34.223,34.223,0,0,1-4.436,6.611l2.045-.26c-.125-.41-.255-.835-.385-1.27l1.98-.325a22.735,22.735,0,0,1,1.215,3.94l-2.17.325c-.045-.215-.085-.425-.125-.62l-6.256.78a13.547,13.547,0,0,0-.35-2.085l1.215-.165c.83-.975,1.6-1.945,2.3-2.9a25.731,25.731,0,0,0-3.51-3.65l1.245-1.855c.235.2.445.38.64.555a24.346,24.346,0,0,0,2.075-3.42l1.98.945a31.784,31.784,0,0,1-2.49,4.041c.445.5.9,1,1.34,1.5.7-1.105,1.33-2.2,1.885-3.255l1.82,1.105Zm-.35,10v3.58a13.892,13.892,0,0,1-1.15,5.911,11.132,11.132,0,0,1-4.181,4.446l-1.915-1.825a9.69,9.69,0,0,0,3.96-4.331h-4.021v-7.4h2.555v5.146h2.075a14.154,14.154,0,0,0,.13-1.955v-3.58h2.555Zm7.916-1.6-6.606.91a14.36,14.36,0,0,0-.35-2.115l1.18-.13q1.148-1.433,2.14-2.8a29.6,29.6,0,0,0-3.575-3.875L112.808,14c.21.175.415.345.605.52a22,22,0,0,0,1.945-3.385l2.045.88a35.633,35.633,0,0,1-2.455,4.106c.47.545.935,1.1,1.405,1.66a35.856,35.856,0,0,0,1.82-3.42l1.85,1.04a34.1,34.1,0,0,1-4.216,6.711l2.235-.3q-.225-.653-.51-1.335l1.945-.52a26.644,26.644,0,0,1,1.6,4.071l-2.17.52A6.093,6.093,0,0,0,118.743,23.837Zm1.31,1.985v7.656H115.3v3.35a2.42,2.42,0,0,1-2.465,2.465h-.085V25.432H115.3v5.8h2.2V25.822h2.555Z" transform="translate(-45.894 -5.544)" fill="#001655"/><path d="M155.955,21.721q9.8-5.341,13.692-10.881h2.4q3.45,5.573,13.5,10.616l-1.565,2.31a52.163,52.163,0,0,1-5.171-3.06v2.31H162.846V20.641a49.657,49.657,0,0,1-5.461,3.29l-1.435-2.215Zm3.9,4.691h22.283V36.433a2.421,2.421,0,0,1-2.465,2.465h-.12v-1.25H162.406v1.17H159.85V26.407Zm19.692,2.475H162.4v6.286h17.142ZM170.827,13.35a42.362,42.362,0,0,1-7.821,7.2h15.512a30.617,30.617,0,0,1-7.691-7.2Z" transform="translate(-77.965 -5.419)" fill="#001655"/></svg>