<svg xmlns="http://www.w3.org/2000/svg" xmlns:xlink="http://www.w3.org/1999/xlink" width="97.391" height="103.437" viewBox="0 0 97.391 103.437"><defs><clipPath id="a"><rect width="97.391" height="103.437"/></clipPath></defs><g clip-path="url(#a)"><path d="M204.294,22.963c-15.608.655-17.172-21.307-1.891-22.9,14.295-1.428,17.382,21.077,1.891,22.9M202.4,3.426c-11.09,1.611-8.849,17.288,1.891,16.108,11.064-1.594,7.924-17.557-1.891-16.108" transform="translate(-167.602 0.001)"/><path d="M59.532,218.165c5.321,1.033,9.162-1.991,8.961-7.454a7.074,7.074,0,0,0-1.449-3.259c-2.508-2.866-4.458-2.7-8.008-3.372l-8.647-1.7a54.257,54.257,0,0,1-5.6-1.221c-3.627-6.94-6.678-6.745-13.344-8.551-2.273-.616-5.186-1.9-7.581-1.271-8.684.41-11.283,6.7-14.545,13.2l-4.371,8.6c-1.3,2.567-3.5,6.3-4.464,8.85-2.731,7.232,6.662,13.3,11.987,7.277,1.165-1.317,2.75-5,3.632-6.727l3.24-6.406c.592-1.169,4.185-6.864.245-6.362-1.439.183-2.119,2.63-2.685,3.708-1.447,2.756-5.359,11.643-7.028,13.652-2.584,3.111-7.671-.3-6.182-3.957.606-1.487,1.467-2.929,2.215-4.353l7.618-14.92c2.5-4.982,4.041-8.517,10.55-9.26,2.291-.262,4.522.736,6.687,1.316,3.937,1.054,8.125,1.334,10.245,5.324,1.982,3.73.864,2.866,5.1,3.715l10.6,2.077c2.642.51,8.078.439,8.35,4.16.123,1.676-1.209,3.715-3,3.8-2.973.14-13.485-2.456-16.746-3.109-1.15-.23-4-1.351-4.986-.389-.756.738-4.821,13.836-5.511,15.822-1.606,4.625-1.959,4.745-1.953,9.614l.006,30.135H18.063l0-30.569c0-1.345.539-4.661-1.613-4.7-2.664-.046-1.826,4.5-1.823,6.116l0,9.493-.008,19.651a23.393,23.393,0,0,0,.008,2.644,2.719,2.719,0,0,0,2.392.813l15.465,0c4.4,0,3.8-.344,3.789-4.4V241.948c0-7.207-.363-7.107,1.9-13.869l4.458-13.244c1.895.41,3.793.816,5.7,1.191,5.584,1.1,11.21,2.138,11.21,2.138" transform="translate(0 -167.109)"/><path d="M351.542,300.214c3.536,0,3.47-.518,5.258,2.6l1.459,2.5c1.408,2.406,2.915,4.771,4.246,7.221a19.193,19.193,0,0,1,1.475,2.407c.3,1.27.113,7.366.089,8.93-.031,2-1.472,2.018-3.091,1.992l0,21.482c0,3.631.3,4.021-3.222,4.016l-45.924,0c-3.936.022-3.529-.438-3.528-3.8v-21.7c-1.611.037-3.053.184-3.072-1.861-.015-1.682-.22-7.054.1-8.484a8.2,8.2,0,0,1,1.072-1.991l6.219-10.864c1.741-2.981,1.457-2.453,4.88-2.453l4.929,0s1.6-1.791,2.382-1.018c1.847,1.819,1.5,1.565,1.5,4.076l0,3.478h16.9V287.813h-7.6c-1.244-1.194-2.439-2.5-3.753-3.614h10.45c4.914,0,4.4.164,4.395,4.6,0,2.606-.062,8.812,0,11.416Zm-4.829,3.548,0,3.3c0,1.186.29,3.145-1.427,3.282-1.31.1-2.675.028-3.992.028H327.464c-3.5,0-4.781.867-4.768-3.263,0-1.116.025-2.233.005-3.349h-6.549c-1.676,3.156-3.828,6.864-5.706,9.851l-.252.448H359.2a41.458,41.458,0,0,0-2.216-3.805c-1.289-2.128-2.59-4.3-3.761-6.494-2.167,0-4.349-.057-6.515,0m-25.549,13.8c-4.143,0-8.292-.05-12.434,0v4.744h39.343c4.168,0,8.343.05,12.51,0v-4.744H321.164Zm-9.33,8.3v21.977h45.658V325.866H311.834Z" transform="translate(-266.757 -248.435)"/></g></svg>